<?xml version="1.0" encoding="UTF-8" standalone="no"?>
<!DOCTYPE svg PUBLIC "-//W3C//DTD SVG 1.1//EN" "http://www.w3.org/Graphics/SVG/1.1/DTD/svg11.dtd">
<svg width="100%" height="100%" viewBox="0 0 512 512" version="1.1" xmlns="http://www.w3.org/2000/svg" xmlns:xlink="http://www.w3.org/1999/xlink" xml:space="preserve" xmlns:serif="http://www.serif.com/" style="fill-rule:evenodd;clip-rule:evenodd;stroke-linecap:round;stroke-linejoin:round;stroke-miterlimit:1.5;">
    <g transform="matrix(1,0,0,1,0,-283.863)">
        <g id="Icone" transform="matrix(1.024,0,0,4.096,0,283.863)">
            <rect x="0" y="0" width="500" height="125" style="fill:none;"/>
            <g transform="matrix(4.2814,0,0,4.2814,-74.4667,-154.405)">
                <g transform="matrix(0.976563,0,0,0.244141,3.46945e-15,35.3085)">
                    <path d="M22.257,41.146L41.565,41.131C46.016,25.114 59.821,13.438 76.162,13.438L84.156,13.438C100.501,13.438 114.309,25.119 118.758,41.146C118.707,41.136 118.656,41.131 118.604,41.131L118.772,41.146C119.239,41.146 119.619,41.525 119.619,41.993C119.619,42.325 119.619,42.705 119.619,43.038C119.619,43.435 119.346,43.768 118.977,43.86C119.298,45.6 119.467,47.737 119.549,49.808L122.676,49.808C123.846,49.808 124.968,50.273 125.795,51.1C126.622,51.927 127.087,53.049 127.087,54.22C127.087,59.25 127.087,67.426 127.087,72.457C127.087,73.627 126.622,74.749 125.795,75.577C124.968,76.404 123.846,76.869 122.676,76.869L119.561,76.869L119.538,82.191C119.538,90.81 114.338,98.472 106.703,101.236C103.399,102.433 103.925,106.96 108.303,106.957L108.329,106.957C108.381,106.957 108.434,106.956 108.487,106.955C110.104,106.908 111.656,106.665 113.091,106.133L113.069,106.153C109.402,109.604 104.463,111.722 99.03,111.73L98.998,111.73C89.424,111.73 77.907,111.73 67.652,111.73C60.525,111.73 53.69,108.899 48.651,103.86C43.612,98.821 40.781,91.986 40.781,84.859L40.781,76.869C40.781,76.869 39.296,76.869 37.643,76.869C36.473,76.869 35.351,76.404 34.524,75.577C33.696,74.749 33.231,73.627 33.231,72.457C33.231,67.426 33.231,59.25 33.231,54.22C33.231,53.049 33.696,51.927 34.524,51.1C35.351,50.273 36.473,49.808 37.643,49.808L40.781,49.808C40.781,49.808 40.989,46.877 41.388,44.749C41.433,44.454 41.481,44.166 41.532,43.885L22.257,43.885C21.789,43.885 21.41,43.505 21.41,43.038C21.41,42.705 21.41,42.325 21.41,41.993C21.41,41.525 21.789,41.146 22.257,41.146Z" style="fill:white;stroke:white;stroke-width:4.7px;"/>
                </g>
                <g transform="matrix(0.976563,0,0,0.244141,-42.8984,34.688)">
                    <path d="M84.709,87.401L84.709,53.857C84.709,34.277 100.582,18.404 120.162,18.404L128.012,18.404C147.593,18.404 163.466,34.277 163.466,53.857C163.466,64.362 163.466,75.511 163.466,84.732C163.466,93.351 158.266,101.014 150.631,103.778C147.281,104.991 147.869,109.628 152.415,109.496C154.032,109.449 155.584,109.206 157.019,108.674C153.342,112.144 148.383,114.272 142.926,114.272C133.352,114.272 121.835,114.272 111.58,114.272C104.453,114.272 97.618,111.441 92.579,106.401C87.54,101.362 84.709,94.527 84.709,87.401Z" style="fill:rgb(255,228,213);stroke:rgb(255,0,0);stroke-width:2.18px;"/>
                </g>
                <g transform="matrix(0.976563,0,0,0.244141,-42.8984,34.688)">
                    <path d="M84.709,52.349L81.571,52.349C80.401,52.349 79.279,52.814 78.451,53.641C77.624,54.469 77.159,55.591 77.159,56.761C77.159,61.792 77.159,69.968 77.159,74.998C77.159,76.169 77.624,77.291 78.451,78.118C79.279,78.945 80.401,79.41 81.571,79.41C83.224,79.41 84.709,79.41 84.709,79.41L84.709,52.349Z" style="fill:rgb(255,228,213);stroke:black;stroke-width:2.18px;"/>
                </g>
                <g transform="matrix(-0.976563,0,0,0.244141,199.46,34.688)">
                    <path d="M84.709,52.349L81.571,52.349C80.401,52.349 79.279,52.814 78.451,53.641C77.624,54.469 77.159,55.591 77.159,56.761C77.159,61.792 77.159,69.968 77.159,74.998C77.159,76.169 77.624,77.291 78.451,78.118C79.279,78.945 80.401,79.41 81.571,79.41C83.224,79.41 84.709,79.41 84.709,79.41L84.709,52.349Z" style="fill:rgb(255,228,213);stroke:black;stroke-width:2.18px;"/>
                </g>
                <g transform="matrix(0.976563,0,0,0.244141,-42.8984,34.688)">
                    <path d="M163.547,66.338L163.466,84.732C163.466,93.351 158.266,101.014 150.631,103.778C147.281,104.991 147.869,109.628 152.415,109.496C154.032,109.449 155.584,109.206 157.019,108.674C153.342,112.144 148.383,114.272 142.926,114.272C133.352,114.272 121.835,114.272 111.58,114.272C104.453,114.272 97.618,111.441 92.579,106.401C87.54,101.362 84.709,94.527 84.709,87.401L84.709,66.338C86.68,74.098 93.234,80.802 101.312,85.22C102.886,80.122 112.49,76.195 124.087,76.195C135.684,76.195 145.288,80.122 146.863,85.22C154.94,80.802 161.576,74.098 163.547,66.338Z" style="fill:rgb(177,177,177);stroke:black;stroke-width:2.18px;"/>
                </g>
                <g transform="matrix(0.976563,0,0,0.244141,-42.8984,34.688)">
                    <ellipse cx="112.631" cy="63.319" rx="1.758" ry="4.689" style="stroke:black;stroke-width:2.18px;"/>
                </g>
                <g transform="matrix(0.976563,0,0,0.244141,-42.8984,34.688)">
                    <path d="M117.571,63.946C117.571,63.562 117.419,63.194 117.147,62.923C116.876,62.652 116.509,62.5 116.125,62.5C111.952,62.5 99.914,62.5 95.74,62.5C95.356,62.5 94.989,62.652 94.718,62.923C94.447,63.194 94.294,63.562 94.294,63.946C94.294,65.203 94.294,67.1 94.294,68.888C94.294,71.546 96.449,73.701 99.107,73.701C103.104,73.701 108.761,73.701 112.758,73.701C115.416,73.701 117.571,71.546 117.571,68.888C117.571,67.1 117.571,65.203 117.571,63.946Z" style="fill:white;fill-opacity:0.61;stroke:black;stroke-width:2.18px;"/>
                </g>
                <g transform="matrix(-0.976563,0,0,0.244141,199.46,34.688)">
                    <ellipse cx="112.631" cy="63.319" rx="1.758" ry="4.689" style="stroke:black;stroke-width:2.18px;"/>
                </g>
                <g transform="matrix(-0.976563,0,0,0.244141,199.46,34.688)">
                    <path d="M117.571,63.946C117.571,63.562 117.419,63.194 117.147,62.923C116.876,62.652 116.509,62.5 116.125,62.5C111.952,62.5 99.914,62.5 95.74,62.5C95.356,62.5 94.989,62.652 94.718,62.923C94.447,63.194 94.294,63.562 94.294,63.946C94.294,65.203 94.294,67.1 94.294,68.888C94.294,71.546 96.449,73.701 99.107,73.701C103.104,73.701 108.761,73.701 112.758,73.701C115.416,73.701 117.571,71.546 117.571,68.888C117.571,67.1 117.571,65.203 117.571,63.946Z" style="fill:white;fill-opacity:0.61;stroke:black;stroke-width:2.18px;"/>
                </g>
                <g transform="matrix(0.976563,0,0,0.244141,-42.8984,35.4205)">
                    <path d="M130.604,69.045C130.604,67.426 129.961,65.874 128.817,64.73C127.672,63.586 126.121,62.943 124.502,62.943L123.672,62.943C122.054,62.943 120.502,63.586 119.358,64.73C118.214,65.874 117.571,67.426 117.571,69.045L117.571,72.453C117.571,74.399 119.148,75.976 121.094,75.976L127.08,75.976C129.026,75.976 130.604,74.399 130.604,72.453L130.604,69.045Z" style="fill:rgb(255,228,213);stroke:black;stroke-width:2.18px;"/>
                </g>
                <g transform="matrix(0.976563,0,0,0.244141,-42.8984,34.688)">
                    <path d="M86.189,43.687C90.56,29.064 104.116,18.404 120.162,18.404L128.012,18.404C144.062,18.404 157.621,29.069 161.99,43.701C161.94,43.692 161.89,43.687 161.839,43.687L86.189,43.687Z" style="fill:rgb(21,0,177);stroke:black;stroke-width:2.18px;"/>
                </g>
                <g transform="matrix(0.976563,0,0,0.244141,-42.8984,34.688)">
                    <path d="M86.189,43.687C84.373,48.238 84.709,60.162 84.709,60.162C86.68,52.401 93.234,45.807 101.312,41.39C102.886,46.487 112.49,50.414 124.087,50.414C135.684,50.414 145.288,46.487 146.863,41.39C154.94,45.807 161.495,52.511 163.466,60.272C163.466,60.272 164.09,46.541 161.871,43.313C157.316,36.684 146.246,22.936 124.089,23.046C101.932,23.155 89.166,36.226 86.189,43.687Z" style="fill:rgb(177,177,177);stroke:black;stroke-width:2.18px;"/>
                </g>
                <g transform="matrix(0.976563,0,0,0.244141,-42.8984,34.688)">
                    <path d="M105.933,87.94C112.764,90.775 114.564,90.651 124.087,90.305" style="fill:none;stroke:black;stroke-width:2.18px;"/>
                </g>
                <g transform="matrix(0.9945,0,0,0.267406,-45.1242,33.668)">
                    <path d="M86.189,43.687C90.56,29.064 104.116,18.404 120.162,18.404L128.012,18.404C144.062,18.404 157.621,29.069 161.99,43.701C161.94,43.692 161.89,43.687 161.839,43.687L86.189,43.687Z" style="fill:rgb(10,0,83);stroke:black;stroke-width:2.06px;"/>
                </g>
                <g transform="matrix(1.11571,0,0,0.0684268,-64.6944,42.8457)">
                    <path d="M162.686,39.677C162.686,38.007 162.354,36.654 161.944,36.654C154.036,36.654 85.375,36.654 77.466,36.654C77.057,36.654 76.725,38.007 76.725,39.677C76.725,40.862 76.725,42.219 76.725,43.404C76.725,45.073 77.057,46.426 77.466,46.426C85.375,46.426 154.036,46.426 161.944,46.426C162.354,46.426 162.686,45.073 162.686,43.404C162.686,42.219 162.686,40.862 162.686,39.677Z" style="fill:rgb(10,0,83);stroke:black;stroke-width:2.62px;"/>
                </g>
                <g transform="matrix(1.94978,0,0,0.487445,-163.406,28.7831)">
                    <path d="M115.808,27.819L115.808,26.835L121.497,24.432L121.497,25.481L116.985,27.333L121.497,29.202L121.497,30.251L115.808,27.819Z" style="fill:white;fill-rule:nonzero;stroke:white;stroke-width:0.36px;stroke-linecap:butt;stroke-miterlimit:2;"/>
                    <path d="M122.159,31.722L124.649,22.839L125.493,22.839L123.009,31.722L122.159,31.722Z" style="fill:white;fill-rule:nonzero;stroke:white;stroke-width:0.36px;stroke-linecap:butt;stroke-miterlimit:2;"/>
                    <path d="M131.839,27.819L126.149,30.251L126.149,29.202L130.655,27.333L126.149,25.481L126.149,24.432L131.839,26.835L131.839,27.819Z" style="fill:white;fill-rule:nonzero;stroke:white;stroke-width:0.36px;stroke-linecap:butt;stroke-miterlimit:2;"/>
                </g>
            </g>
        </g>
    </g>
</svg>
